<svg xmlns="http://www.w3.org/2000/svg" width="560" height="420" viewBox="0 0 560 420"><rect width="560" height="420" rx="10" fill="#ffffff"/><rect width="560" height="420" rx="10" fill="none" stroke="#e8eaf2" stroke-width="1.5"/><rect width="560" height="34" rx="10" fill="#f2f4f9"/><rect y="24" width="560" height="10" fill="#f2f4f9"/><circle cx="18" cy="17" r="5" fill="#ff5f57"/><circle cx="34" cy="17" r="5" fill="#febc2e"/><circle cx="50" cy="17" r="5" fill="#28c840"/><rect x="72" y="9" width="464" height="16" rx="8" fill="#ffffff" stroke="#e3e6ef"/><text x="84" y="21" font-size="10.5" fill="#9aa1b5">🔒 demo.theme/anime</text><defs><linearGradient id="hg" x1="0" y1="0" x2="1" y2="1"><stop offset="0" stop-color="#ff8fb9"/><stop offset="1" stop-color="#8b6dfa"/></linearGradient></defs><defs><linearGradient id="bgg" x1="0" y1="0" x2="1" y2="1"><stop offset="0" stop-color="#fdf0f6"/><stop offset="1" stop-color="#f3ecff"/></linearGradient></defs><rect y="34" width="560" height="386" fill="url(#bgg)"/><rect y="34" width="560" height="34" fill="#ffffff"/><circle cx="28" cy="51" r="8" fill="#ff7eb3"/><rect x="44" y="46" width="46" height="9" rx="4.5" fill="#f3c6db"/><rect x="44" y="46" width="38" height="9" rx="4.5" fill="#f3c6db"/><rect x="44" y="46" width="30" height="9" rx="4.5" fill="#f3c6db"/><rect x="464" y="42" width="72" height="18" rx="9" fill="#ff7eb3"/><rect x="20" y="80" width="520" height="138" rx="10" fill="url(#hg)"/><circle cx="470" cy="98" r="34" fill="#ffffff" opacity=".12"/><circle cx="410" cy="190" r="20" fill="#ffffff" opacity=".10"/><rect x="38" y="94" width="150" height="10" rx="5" fill="#ffffff" opacity=".92"/><rect x="38" y="112" width="104" height="8" rx="4" fill="#ffffff" opacity=".55"/><rect x="38" y="128" width="64" height="16" rx="8" fill="#ffffff"/><rect x="20" y="244" width="165" height="156" rx="9" fill="#ffffff" stroke="#f6d9e7"/><rect x="30" y="254" width="145" height="65" rx="6" fill="#fdeaf2"/><circle cx="102.5" cy="286" r="17" fill="#ff7eb3" opacity=".8"/><rect x="30" y="327" width="121" height="7" rx="3.5" fill="#e3c9d8"/><rect x="30" y="340" width="105" height="7" rx="3.5" fill="#e3c9d8" opacity=".6"/><rect x="123" y="376" width="52" height="16" rx="8" fill="#ff7eb3"/><rect x="197" y="244" width="165" height="156" rx="9" fill="#ffffff" stroke="#f6d9e7"/><rect x="207" y="254" width="145" height="65" rx="6" fill="#fdeaf2"/><circle cx="279.5" cy="286" r="17" fill="#ff7eb3" opacity=".8"/><rect x="207" y="327" width="121" height="7" rx="3.5" fill="#e3c9d8"/><rect x="207" y="340" width="105" height="7" rx="3.5" fill="#e3c9d8" opacity=".6"/><rect x="300" y="376" width="52" height="16" rx="8" fill="#ff7eb3"/><rect x="374" y="244" width="165" height="156" rx="9" fill="#ffffff" stroke="#f6d9e7"/><rect x="384" y="254" width="145" height="65" rx="6" fill="#fdeaf2"/><circle cx="456.5" cy="286" r="17" fill="#ff7eb3" opacity=".8"/><rect x="384" y="327" width="121" height="7" rx="3.5" fill="#e3c9d8"/><rect x="384" y="340" width="105" height="7" rx="3.5" fill="#e3c9d8" opacity=".6"/><rect x="477" y="376" width="52" height="16" rx="8" fill="#ff7eb3"/></svg>