<svg xmlns="http://www.w3.org/2000/svg" width="560" height="340" viewBox="0 0 560 340"><rect width="560" height="340" rx="10" fill="#ffffff"/><rect width="560" height="340" rx="10" fill="none" stroke="#e8eaf2" stroke-width="1.5"/><rect width="560" height="34" rx="10" fill="#f2f4f9"/><rect y="24" width="560" height="10" fill="#f2f4f9"/><circle cx="18" cy="17" r="5" fill="#ff5f57"/><circle cx="34" cy="17" r="5" fill="#febc2e"/><circle cx="50" cy="17" r="5" fill="#28c840"/><rect x="72" y="9" width="464" height="16" rx="8" fill="#ffffff" stroke="#e3e6ef"/><text x="84" y="21" font-size="10.5" fill="#9aa1b5">🔒 shop.example.com</text><rect y="34" width="560" height="306" fill="#f5f6fa"/><rect x="90" y="68" width="380" height="232" rx="16" fill="#ffffff" stroke="#e8eaf2"/><circle cx="130" cy="108" r="18" fill="#1677ff1f"/><text x="130" y="114" font-size="16" font-weight="800" fill="#1677ff" text-anchor="middle">支</text><text x="158" y="104" font-size="13.5" font-weight="700" fill="#1d212e">支付宝官方支付</text><text x="158" y="122" font-size="11" fill="#9aa1b5">订单支付收银台</text><text x="280" y="176" font-size="30" font-weight="800" fill="#1d212e" text-anchor="middle">¥ 88.00</text><rect x="138" y="200" width="284" height="42" rx="21" fill="#1677ff"/><text x="280" y="226" font-size="14" font-weight="700" fill="#ffffff" text-anchor="middle">跳转支付宝支付</text><circle cx="146" cy="272" r="8" fill="#1677ff"/><text x="160" y="276" font-size="11" fill="#5b6478">电脑网站</text><circle cx="238" cy="272" r="8" fill="#1677ff"/><text x="252" y="276" font-size="11" fill="#5b6478">手机跳转</text></svg>