<svg xmlns="http://www.w3.org/2000/svg" width="560" height="400" viewBox="0 0 560 400"><defs><linearGradient id="g" x1="0" y1="0" x2="1" y2="1"><stop offset="0" stop-color="#4a6cf7"/><stop offset="1" stop-color="#7b8ff7"/></linearGradient></defs><rect width="560" height="400" rx="10" fill="#f4f5f9"/><rect width="560" height="46" fill="#ffffff"/><rect x="20" y="12" width="150" height="22" rx="6" fill="#4a6cf7"/><rect y="45" width="560" height="30" fill="#fff8e0"/><rect x="20" y="52" width="26" height="16" rx="4" fill="#f7a417"/><rect x="20" y="92" width="150" height="286" rx="10" fill="#ffffff"/><rect x="32" y="104" width="80" height="14" rx="4" fill="#c9d4f5"/><rect x="32" y="130" width="126" height="30" rx="8" fill="#4a6cf7"/><rect x="32" y="168" width="126" height="30" rx="8" fill="#eef2ff"/><rect x="32" y="206" width="126" height="30" rx="8" fill="#eef2ff"/><rect x="188" y="92" width="352" height="24" rx="6" fill="#4a6cf7" opacity=".85"/><rect x="188" y="128" width="110" height="126" rx="8" fill="#ffffff"/><rect x="196" y="136" width="94" height="70" rx="6" fill="#dce6ff"/><rect x="196" y="212" width="94" height="10" rx="4" fill="#d5d9e2"/><rect x="196" y="228" width="60" height="12" rx="4" fill="#e02020"/><rect x="310" y="128" width="110" height="126" rx="8" fill="#ffffff"/><rect x="318" y="136" width="94" height="70" rx="6" fill="#dce6ff"/><rect x="318" y="212" width="94" height="10" rx="4" fill="#d5d9e2"/><rect x="318" y="228" width="60" height="12" rx="4" fill="#e02020"/><rect x="430" y="128" width="110" height="126" rx="8" fill="#ffffff"/><rect x="438" y="136" width="94" height="70" rx="6" fill="#dce6ff"/><rect x="438" y="212" width="94" height="10" rx="4" fill="#d5d9e2"/><rect x="438" y="228" width="60" height="12" rx="4" fill="#e02020"/><text x="280" y="372" font-size="22" font-family="Microsoft YaHei, sans-serif" font-weight="700" fill="#ffffff" text-anchor="middle">蔚蓝商城 · 经典电商主题</text></svg>