<svg xmlns="http://www.w3.org/2000/svg" width="560" height="300" viewBox="0 0 560 300"><rect width="560" height="300" rx="10" fill="#ffffff"/><rect width="560" height="300" rx="10" fill="none" stroke="#e8eaf2" stroke-width="1.5"/><rect width="560" height="34" rx="10" fill="#f2f4f9"/><rect y="24" width="560" height="10" fill="#f2f4f9"/><circle cx="18" cy="17" r="5" fill="#ff5f57"/><circle cx="34" cy="17" r="5" fill="#febc2e"/><circle cx="50" cy="17" r="5" fill="#28c840"/><rect x="72" y="9" width="464" height="16" rx="8" fill="#ffffff" stroke="#e3e6ef"/><text x="84" y="21" font-size="10.5" fill="#9aa1b5">🔒 demo.theme/minimal</text><defs><linearGradient id="hg" x1="0" y1="0" x2="1" y2="1"><stop offset="0" stop-color="#f1f1f1"/><stop offset="1" stop-color="#e6e6e6"/></linearGradient></defs><rect y="34" width="560" height="266" fill="#fafafa"/><rect y="34" width="560" height="34" fill="#ffffff"/><circle cx="28" cy="51" r="8" fill="#111111"/><rect x="44" y="46" width="46" height="9" rx="4.5" fill="#e2e2e2"/><rect x="44" y="46" width="38" height="9" rx="4.5" fill="#e2e2e2"/><rect x="44" y="46" width="30" height="9" rx="4.5" fill="#e2e2e2"/><rect x="464" y="42" width="72" height="18" rx="9" fill="#111111"/><rect x="20" y="80" width="520" height="87" rx="10" fill="url(#hg)"/><rect x="38" y="94" width="150" height="10" rx="5" fill="#ffffff" opacity=".92"/><rect x="38" y="112" width="104" height="8" rx="4" fill="#ffffff" opacity=".55"/><rect x="38" y="128" width="64" height="16" rx="8" fill="#ffffff"/><rect x="20" y="193" width="165" height="87" rx="9" fill="#ffffff" stroke="#e8e8e8"/><rect x="30" y="203" width="145" height="36" rx="6" fill="#f3f3f3"/><circle cx="102.5" cy="221" r="9" fill="#111111" opacity=".8"/><rect x="30" y="247" width="121" height="7" rx="3.5" fill="#dcdcdc"/><rect x="30" y="260" width="105" height="7" rx="3.5" fill="#dcdcdc" opacity=".6"/><rect x="123" y="256" width="52" height="16" rx="8" fill="#111111"/><rect x="197" y="193" width="165" height="87" rx="9" fill="#ffffff" stroke="#e8e8e8"/><rect x="207" y="203" width="145" height="36" rx="6" fill="#f3f3f3"/><circle cx="279.5" cy="221" r="9" fill="#111111" opacity=".8"/><rect x="207" y="247" width="121" height="7" rx="3.5" fill="#dcdcdc"/><rect x="207" y="260" width="105" height="7" rx="3.5" fill="#dcdcdc" opacity=".6"/><rect x="300" y="256" width="52" height="16" rx="8" fill="#111111"/><rect x="374" y="193" width="165" height="87" rx="9" fill="#ffffff" stroke="#e8e8e8"/><rect x="384" y="203" width="145" height="36" rx="6" fill="#f3f3f3"/><circle cx="456.5" cy="221" r="9" fill="#111111" opacity=".8"/><rect x="384" y="247" width="121" height="7" rx="3.5" fill="#dcdcdc"/><rect x="384" y="260" width="105" height="7" rx="3.5" fill="#dcdcdc" opacity=".6"/><rect x="477" y="256" width="52" height="16" rx="8" fill="#111111"/></svg>