<svg xmlns="http://www.w3.org/2000/svg" width="560" height="400" viewBox="0 0 560 400"><defs><linearGradient id="hd" x1="0" y1="0" x2="1" y2="0"><stop offset="0" stop-color="#ff9d4d"/><stop offset="1" stop-color="#ff6a3d"/></linearGradient></defs><rect width="560" height="400" fill="#f7f5f2"/><rect width="560" height="56" fill="url(#hd)"/><rect x="18" y="14" width="96" height="28" rx="6" fill="#ffffff" opacity=".95"/><rect x="170" y="13" width="230" height="30" rx="15" fill="#ffffff"/><rect x="336" y="17" width="58" height="22" rx="11" fill="none" stroke="#ff6a3d" stroke-width="2"/><circle cx="472" cy="28" r="15" fill="#ffffff" opacity=".35"/><circle cx="512" cy="28" r="15" fill="#ffffff" opacity=".35"/><rect x="18" y="70" width="352" height="84" rx="12" fill="url(#hd)"/><rect x="34" y="88" width="170" height="16" rx="6" fill="#ffffff"/><rect x="34" y="112" width="220" height="9" rx="4" fill="#ffffff" opacity=".7"/><rect x="388" y="70" width="154" height="84" rx="12" fill="#ffffff"/><rect x="400" y="82" width="90" height="12" rx="5" fill="#2b2620"/><rect x="400" y="104" width="120" height="9" rx="4" fill="#d5d0c8"/><rect x="18" y="168" width="524" height="60" rx="12" fill="#ffffff"/><rect x="34" y="184" width="70" height="26" rx="8" fill="url(#hd)"/><rect x="114" y="184" width="90" height="26" rx="8" fill="#f2ede6"/><rect x="214" y="184" width="90" height="26" rx="8" fill="#f2ede6"/><rect x="314" y="184" width="90" height="26" rx="8" fill="#f2ede6"/><rect x="18" y="244" width="124" height="136" rx="12" fill="#ffffff"/><rect x="26" y="252" width="108" height="80" rx="8" fill="#f6ede2"/><rect x="26" y="340" width="70" height="10" rx="4" fill="#d5d0c8"/><rect x="26" y="356" width="48" height="13" rx="5" fill="#e02020"/><rect x="158" y="244" width="124" height="136" rx="12" fill="#ffffff"/><rect x="166" y="252" width="108" height="80" rx="8" fill="#f6ede2"/><rect x="166" y="340" width="70" height="10" rx="4" fill="#d5d0c8"/><rect x="166" y="356" width="48" height="13" rx="5" fill="#e02020"/><rect x="298" y="244" width="124" height="136" rx="12" fill="#ffffff"/><rect x="306" y="252" width="108" height="80" rx="8" fill="#f6ede2"/><rect x="306" y="340" width="70" height="10" rx="4" fill="#d5d0c8"/><rect x="306" y="356" width="48" height="13" rx="5" fill="#e02020"/><rect x="438" y="244" width="104" height="136" rx="12" fill="#ffffff"/><rect x="446" y="252" width="88" height="80" rx="8" fill="#f6ede2"/><rect x="446" y="340" width="70" height="10" rx="4" fill="#d5d0c8"/><rect x="446" y="356" width="48" height="13" rx="5" fill="#e02020"/></svg>